<?xml version="1.0" encoding="UTF-8" standalone="no"?><!DOCTYPE svg PUBLIC "-//W3C//DTD SVG 1.1//EN" "http://www.w3.org/Graphics/SVG/1.1/DTD/svg11.dtd"><svg width="100%" height="100%" viewBox="0 0 50 50" version="1.1" xmlns="http://www.w3.org/2000/svg" xmlns:xlink="http://www.w3.org/1999/xlink" xml:space="preserve" xmlns:serif="http://www.serif.com/" style="fill-rule:evenodd;clip-rule:evenodd;stroke-linejoin:round;stroke-miterlimit:1.41421;"><path d="M12.989,14.96c0,-0.197 -0.16,-0.357 -0.358,-0.357c-1.602,0 -8.178,0 -11.155,0c-0.815,0 -1.476,0.66 -1.476,1.476c0,3.825 0,14.029 0,17.841c0,0.808 0.655,1.462 1.463,1.462c3.396,0 11.526,0 11.526,0c0,0 0,-17.674 0,-20.422Z"/><path d="M0.048,25c0,0 18.394,-16.529 25.269,-22.707c0.449,-0.403 1.094,-0.505 1.645,-0.259c0.552,0.246 0.907,0.793 0.907,1.397c0,9.167 0,34.149 0,43.22c0,0.59 -0.347,1.124 -0.885,1.364c-0.539,0.24 -1.168,0.141 -1.606,-0.253c-6.827,-6.135 -25.33,-22.762 -25.33,-22.762Z"/><path d="M34.616,17.545c-0.287,-0.287 -0.675,-0.448 -1.08,-0.448c-0.406,0 -0.794,0.161 -1.081,0.448c-0.443,0.443 -0.956,0.956 -1.397,1.397c-0.281,0.281 -0.438,0.661 -0.438,1.058c0,0.397 0.157,0.777 0.438,1.058c2.621,2.621 9.395,9.395 12.021,12.021c0.587,0.587 1.539,0.587 2.126,0c0.45,-0.45 0.973,-0.973 1.422,-1.421c0.278,-0.279 0.435,-0.657 0.435,-1.051c0,-0.395 -0.157,-0.773 -0.435,-1.051c-2.611,-2.611 -9.37,-9.37 -12.011,-12.011Z"/><path d="M46.858,21.203c0.287,-0.287 0.448,-0.675 0.448,-1.08c0,-0.406 -0.161,-0.794 -0.448,-1.081c-0.444,-0.443 -0.956,-0.956 -1.397,-1.397c-0.281,-0.281 -0.661,-0.438 -1.058,-0.438c-0.397,0 -0.778,0.157 -1.058,0.438c-2.622,2.621 -9.395,9.395 -12.021,12.021c-0.588,0.587 -0.588,1.539 0,2.126c0.45,0.45 0.972,0.973 1.421,1.422c0.279,0.278 0.657,0.435 1.051,0.435c0.394,0 0.772,-0.157 1.051,-0.435c2.611,-2.611 9.37,-9.37 12.011,-12.011Z"/></svg>