<?xml version="1.0" encoding="UTF-8" standalone="no"?><!DOCTYPE svg PUBLIC "-//W3C//DTD SVG 1.1//EN" "http://www.w3.org/Graphics/SVG/1.1/DTD/svg11.dtd"><svg width="100%" height="100%" viewBox="0 0 50 50" version="1.1" xmlns="http://www.w3.org/2000/svg" xmlns:xlink="http://www.w3.org/1999/xlink" xml:space="preserve" xmlns:serif="http://www.serif.com/" style="fill-rule:evenodd;clip-rule:evenodd;stroke-linejoin:round;stroke-miterlimit:1.41421;"><path d="M30.468,16.673c-0.107,-1.46 0.61,-3.213 2.698,-2.589c4.609,7.221 3.957,14.752 0.173,22.08c-1.839,0.871 -2.993,-0.287 -2.825,-2.573c2.761,-5.274 3.385,-10.651 -0.046,-16.918Z"/><path d="M35.565,10.644c-0.099,-1.686 0.909,-3.347 2.977,-2.208c6.917,7.629 6.078,26.786 -0.036,33.638c-2.115,0.818 -3.186,-0.904 -2.731,-3.118c3.857,-3.833 6.488,-19.05 -0.21,-28.312Z"/><path d="M40.28,5.184c-0.099,-1.685 0.908,-3.456 2.977,-2.316c9.315,7.581 8.672,37.716 -0.037,44.622c-2.062,0.973 -3.13,-0.466 -2.731,-2.845c7.025,-9.126 9.082,-26.642 -0.209,-39.461Z"/><path d="M12.989,14.96c0,-0.197 -0.16,-0.357 -0.358,-0.357c-1.602,0 -8.178,0 -11.155,0c-0.815,0 -1.476,0.66 -1.476,1.476c0,3.825 0,14.029 0,17.841c0,0.808 0.655,1.462 1.463,1.462c3.396,0 11.526,0 11.526,0c0,0 0,-17.674 0,-20.422Z"/><path d="M0.048,25c0,0 18.394,-16.529 25.269,-22.707c0.449,-0.403 1.094,-0.505 1.645,-0.259c0.552,0.246 0.907,0.793 0.907,1.397c0,9.167 0,34.149 0,43.22c0,0.59 -0.347,1.124 -0.885,1.364c-0.539,0.24 -1.168,0.141 -1.606,-0.253c-6.827,-6.135 -25.33,-22.762 -25.33,-22.762Z"/></svg>