<?xml version="1.0" encoding="UTF-8" standalone="no"?><!DOCTYPE svg PUBLIC "-//W3C//DTD SVG 1.1//EN" "http://www.w3.org/Graphics/SVG/1.1/DTD/svg11.dtd"><svg width="100%" height="100%" viewBox="0 0 1024 1024" version="1.1" xmlns="http://www.w3.org/2000/svg" xmlns:xlink="http://www.w3.org/1999/xlink" xml:space="preserve" xmlns:serif="http://www.serif.com/" style="fill-rule:evenodd;clip-rule:evenodd;stroke-linecap:round;stroke-linejoin:round;stroke-miterlimit:1.5;"><path d="M116.27,912.067c-82.292,131.151 184.49,34.902 225.431,46.275c11.492,3.192 61.321,-4.117 26.938,30.497c-31.341,31.552 151.808,33.436 275.044,-10.4c13.463,3.41 32.753,-2.517 45.169,0.038c13.518,2.781 -25.934,27.762 -13.608,28.808c144.637,12.276 254.946,-30.068 289.78,-105.035c7.85,-16.893 -84.579,-35.8 -63.439,-37.61c59.729,-5.115 189.253,-31.48 43.972,-74.248c-3.094,-0.911 2.861,-6.516 2.621,-8.572c-26.382,2.434 -19.168,-21.403 45.284,-53.926c14.711,-40.945 -145.859,-41.717 -104.701,-67.015c33.478,-20.578 63.122,-68.278 -12.835,-94.191c-91.659,-14.53 -100.814,-13.464 -156.485,-22.208c32.397,-36.289 -38.869,-93.391 -190.992,-83.193c-158.061,-16.797 -240.703,19.887 -223.823,54.328c-81.502,-5.876 -182.611,80.119 -157.506,98.725c41.738,58.606 51.722,24.496 65.881,50.545c-29.962,8.087 -29.889,31.042 -34.919,33.183c-243.087,103.481 -164.069,118.828 -105.423,112.272c21.997,-2.459 -59.979,63.622 12.296,48.503c-79.227,24.87 75.278,-16.841 31.315,53.224Z" style="fill:#a16526;stroke:#000;stroke-width:1px;"/><path d="M309.202,916.628c-115.558,-86.847 176.169,-12.208 328.175,4.497c47.302,-61.992 119.366,-102.39 214.342,-122.807c9.907,-17.025 21.041,-33.073 45.691,-38.359c-71.514,-9.882 -119.019,-32.147 -98.133,-89.686c-60.066,-28.764 -101.149,-23.103 -146.404,-13.218c-39.329,0.642 -68.519,-3.389 -99.649,-31.692c-62.084,-20.541 -124.296,-25.411 -160.918,4.876c-37.734,17.293 -76.42,33.575 -93.295,10.588c7.556,66.14 -54.783,88.608 -114.759,96.563c47.411,11.075 49.776,77.52 40.918,106.771l84.032,72.467Z" style="fill:#573217;stroke:#000;stroke-width:1px;"/><ellipse cx="194.642" cy="854.039" rx="44.515" ry="38.85" style="fill:#7c5840;"/><ellipse cx="166.025" cy="805.881" rx="27.91" ry="27.923" style="fill:#362617;"/><ellipse cx="316.882" cy="598.682" rx="38.863" ry="41.683" style="fill:#352518;"/><ellipse cx="756.383" cy="597.063" rx="29.677" ry="36.826" style="fill:#7b5940;"/><ellipse cx="814.677" cy="616.084" rx="36.39" ry="34.803" style="fill:#423427;"/><ellipse cx="715.754" cy="907.458" rx="36.39" ry="34.803" style="fill:#7b573f;"/><ellipse cx="843.294" cy="882.367" rx="24.731" ry="24.281" style="fill:#342518;"/></svg>