<?xml version="1.0" encoding="UTF-8" standalone="no"?><!DOCTYPE svg PUBLIC "-//W3C//DTD SVG 1.1//EN" "http://www.w3.org/Graphics/SVG/1.1/DTD/svg11.dtd"><svg width="100%" height="100%" viewBox="0 0 100 100" version="1.1" xmlns="http://www.w3.org/2000/svg" xmlns:xlink="http://www.w3.org/1999/xlink" xml:space="preserve" xmlns:serif="http://www.serif.com/" style="fill-rule:evenodd;clip-rule:evenodd;stroke-linecap:round;stroke-linejoin:round;stroke-miterlimit:1.5;"><path d="M98.936,90.851l-3.383,8.984l-16.789,0.165c-8.022,-15.654 -17.105,-31.577 -30.71,-53.144l-27.737,2.822c-5.524,-4.326 -12.526,-14.173 -19.773,-24.938c-2.349,-1.367 3.345,-7.623 8.708,-13.888c5.932,-0.809 66.947,-9.861 79.015,-10.784l11.733,29.563c-4.082,5.987 -7.59,11.397 -13.875,14.305l-12.698,1.12l25.509,45.795Z" style="fill:#cac4ae;stroke:#000;stroke-width:1px;"/><path d="M53.953,6.132l-6.58,3.607c-5.885,0.848 -11.71,1.485 -17.094,0.586l-4.282,-3.551c1.384,-2.017 3.528,-3.7 6.822,-4.876c4.895,-1.492 10.591,-2.039 16.899,-1.868l4.235,6.102" style="fill:#b59562;stroke:#000;stroke-width:1px;"/><path d="M47.373,9.739l-2.946,-5.115l5.291,-4.594" style="fill:none;stroke:#000;stroke-width:1px;"/><path d="M44.427,4.624c-6.028,1.298 -12.159,2.077 -18.43,2.15" style="fill:none;stroke:#000;stroke-width:1px;"/><path d="M73.427,45.056l-25.373,1.8" style="fill:none;stroke:#000;stroke-width:1px;"/><path d="M95.553,99.835l-32.18,-54.066" style="fill:none;stroke:#000;stroke-width:1px;"/><path d="M86.125,43.936c-3.488,3.667 -18.047,-26.452 -16.985,-29.284" style="fill:none;stroke:#000;stroke-width:1px;"/><path d="M88.267,0.068c-7.764,4.537 -14.546,9.303 -19.127,14.584l-68.596,10.088" style="fill:none;stroke:#000;stroke-width:1px;"/></svg>