<?xml version="1.0" encoding="UTF-8" standalone="no"?><!DOCTYPE svg PUBLIC "-//W3C//DTD SVG 1.1//EN" "http://www.w3.org/Graphics/SVG/1.1/DTD/svg11.dtd"><svg width="100%" height="100%" viewBox="0 0 100 100" version="1.1" xmlns="http://www.w3.org/2000/svg" xmlns:xlink="http://www.w3.org/1999/xlink" xml:space="preserve" xmlns:serif="http://www.serif.com/" style="fill-rule:evenodd;clip-rule:evenodd;stroke-linecap:round;stroke-linejoin:round;stroke-miterlimit:1.5;"><path d="M7.822,46.388c-1.619,1.867 -1.619,4.64 0,6.506c7.548,8.703 28.044,32.333 34.156,39.379c0.272,0.313 0.709,0.424 1.097,0.28c0.389,-0.145 0.646,-0.516 0.646,-0.931c0,-13.092 0,-70.591 0,-83.876c0,-0.428 -0.266,-0.811 -0.667,-0.96c-0.4,-0.15 -0.852,-0.035 -1.132,0.288c-6.181,7.126 -26.575,30.638 -34.1,39.314Z"/><path d="M32.528,39.615c0,-5.608 4.553,-10.161 10.16,-10.161l22.938,0c5.608,0 10.161,4.553 10.161,10.161l0,20.321c0,5.607 -4.553,10.16 -10.161,10.16l-22.938,0c-5.607,0 -10.16,-4.553 -10.16,-10.16l0,-20.321Z"/><path d="M52.802,5.718l42.198,-0.433l-0.352,89.715l-40.44,-0.389" style="fill:none;stroke:#000;stroke-width:5px;"/></svg>