<?xml version="1.0" encoding="UTF-8" standalone="no"?><!DOCTYPE svg PUBLIC "-//W3C//DTD SVG 1.1//EN" "http://www.w3.org/Graphics/SVG/1.1/DTD/svg11.dtd"><svg width="100%" height="100%" viewBox="0 0 1024 1024" version="1.1" xmlns="http://www.w3.org/2000/svg" xmlns:xlink="http://www.w3.org/1999/xlink" xml:space="preserve" xmlns:serif="http://www.serif.com/" style="fill-rule:evenodd;clip-rule:evenodd;stroke-linecap:round;stroke-linejoin:round;stroke-miterlimit:1.5;"><path d="M274.418,918.602c-76.317,16.981 -118.522,46.933 -111.701,70.272c15.416,-0.278 34.951,-9.531 57.781,-25.96c-31.318,19.418 -46.647,39.95 -39.309,46.649c17.94,1.057 43.164,-16.226 63.831,-34.237c-19.55,13.221 -28.847,24.717 -19.345,33.048c11.764,-2.476 23.303,-11.62 39.19,-30.392c-12.099,13.652 -20.713,26.311 -11.085,33.775c6.183,2.683 31.731,-17.243 56.184,-39.214c7.219,-3.124 19.504,-13.338 42.849,-18.755c12.174,-2.825 19.99,-7.389 23.368,-15.613l-101.763,-19.573Z" style="fill:#e99a77;stroke:#000;stroke-width:2px;"/><path d="M749.582,917.466c76.317,16.981 118.522,46.933 111.701,70.272c-15.416,-0.278 -34.951,-9.53 -57.781,-25.96c31.318,19.418 46.647,39.951 39.309,46.65c-17.94,1.056 -43.164,-16.227 -63.831,-34.238c19.55,13.222 28.847,24.717 19.345,33.048c-11.764,-2.476 -23.303,-11.62 -39.19,-30.392c12.099,13.652 20.713,26.312 11.085,33.775c-6.183,2.684 -31.731,-17.242 -56.184,-39.214c-7.219,-3.123 -19.504,-13.338 -42.849,-18.755c-12.174,-2.825 -19.99,-7.389 -23.368,-15.612l101.763,-19.574Z" style="fill:#e99a77;stroke:#000;stroke-width:2px;"/><path id="cuerpo" d="M266.861,899.863c9.68,31.327 39.364,48.404 107.071,38.395c48.951,-21.098 96.681,-41.427 117.285,-71.876c21.219,-6.174 35.112,-6.843 52.382,3.154c21.556,35.116 62.777,50.401 104.897,64.779c20.849,13.719 64.779,7.933 97.056,-4.488c18.197,-43.893 16.292,-85.67 3.624,-137.141c36.416,-98.633 43.318,-215.689 -4.48,-330.448c-2.615,-23.313 -3.646,-46.231 -13.489,-71.352c-5.449,-13.842 -13.684,-26.416 -24.195,-36.942c-28.317,-28.371 -37.081,-43.013 -31.369,-82.708c-4.068,-7.977 6.245,-62.863 -1.116,-136.793c-1.822,-18.531 -7.984,-36.372 -17.987,-52.076c-80.477,-126.935 -309.745,-73.364 -311.797,90.426c13.921,56.497 5.373,157.506 -17.79,174.989c-27.668,22.881 -42.359,65.228 -51.856,115.366c-35.809,97.729 -44.038,203.206 2.965,324.2c-13.502,36.418 -13.826,60.885 -11.201,112.515Z" style="fill:#525461;stroke:#000;stroke-width:5px;"/><path id="lomo" d="M431.079,824.527c0.21,0.781 50.898,42.468 79.16,51.408c33.526,-4.374 65.833,-27.29 97.277,-63.341c28.309,-29.186 84.633,-106.243 27.8,-217.802c-16.755,-32.889 -20.673,-67.82 -14.744,-105.453c-17.134,-27.978 -86.881,-112.813 -112.744,-101.215c-68.032,30.509 -109.874,117.061 -99.243,102.559c-2.129,58.089 -7.592,98.56 -19.198,109.934c-74.586,73.094 -3.582,179.549 41.692,223.91Z" style="fill:#8f949e;stroke:#000;stroke-width:5px;"/><path id="mano2" d="M698.026,619.697c19.701,49.893 -21.468,103.661 -57.54,114.859c17.067,-24.338 29.213,-47.248 28.284,-63.819c-6.54,28.076 -19.941,57.826 -49.011,58.513l22.174,-51.06c-6.588,19.677 -15.12,38.12 -45.06,42.97l12.609,-23.87l15.804,-23.751c-1.787,-18.694 -11.116,-24.376 -24.505,-9.818l-12.178,29.634l-4.49,-31.344c1.92,-26.231 13.1,-49.603 44.153,-66.84c23.513,22.436 42.095,29.556 69.76,24.526Z" style="fill:#e99a77;"/><clipPath id="_clip1"><path d="M698.026,619.697c19.701,49.893 -21.468,103.661 -57.54,114.859c17.067,-24.338 29.213,-47.248 28.284,-63.819c-6.54,28.076 -19.941,57.826 -49.011,58.513l22.174,-51.06c-6.588,19.677 -15.12,38.12 -45.06,42.97l12.609,-23.87l15.804,-23.751c-1.787,-18.694 -11.116,-24.376 -24.505,-9.818l-12.178,29.634l-4.49,-31.344c1.92,-26.231 13.1,-49.603 44.153,-66.84c23.513,22.436 42.095,29.556 69.76,24.526Z"/></clipPath><g clip-path="url(#_clip1)"><path id="uña1" d="M671.349,713.795c-3.406,0.333 -9.692,1.791 -14.997,-2.447l-10.524,19.859l25.521,-17.412Z" style="fill:#f2dad1;stroke:#000;stroke-width:1px;"/><path id="uña2" d="M649.983,710.93c-7.385,0.017 -14.356,-0.849 -18.959,-6.746l-12.222,25.46c15.606,-3.941 27.397,-9.563 31.181,-18.714Z" style="fill:#f5e0d5;stroke:#000;stroke-width:1px;"/><path id="uña3" d="M627.909,702.724c-7.985,0.49 -13.816,-2.562 -18.959,-6.746l-12.222,25.46c15.607,-3.941 27.397,-9.563 31.181,-18.714Z" style="fill:#f0ded2;stroke:#000;stroke-width:1px;"/><path id="uña4" d="M598.415,666.619c-7.984,0.49 -9.393,0.694 -14.536,-3.49l3.696,26.274c8.545,-13.952 8.84,-20.765 10.84,-22.784Z" style="fill:#f1dbcb;stroke:#000;stroke-width:1px;"/></g><path d="M698.026,619.697c19.701,49.893 -21.468,103.661 -57.54,114.859c17.067,-24.338 29.213,-47.248 28.284,-63.819c-6.54,28.076 -19.941,57.826 -49.011,58.513l22.174,-51.06c-6.588,19.677 -15.12,38.12 -45.06,42.97l12.609,-23.87l15.804,-23.751c-1.787,-18.694 -11.116,-24.376 -24.505,-9.818l-12.178,29.634l-4.49,-31.344c1.92,-26.231 13.1,-49.603 44.153,-66.84c23.513,22.436 42.095,29.556 69.76,24.526Z" style="fill:none;stroke:#000;stroke-width:5px;"/><path id="mano1" d="M329.455,621.56c-19.701,49.894 21.467,103.662 57.54,114.86c-17.067,-24.339 -29.213,-47.248 -28.284,-63.82c6.54,28.077 19.94,57.826 49.011,58.513l-22.174,-51.06c6.588,19.678 15.12,38.121 45.06,42.971l-12.609,-23.871l-15.804,-23.751c1.787,-18.694 11.116,-24.376 24.505,-9.818l12.177,29.634l4.491,-31.343c-1.92,-26.231 -13.1,-49.604 -44.153,-66.841c-23.513,22.436 -42.095,29.557 -69.76,24.526Z" style="fill:#ea9b78;"/><clipPath id="_clip2"><path d="M329.455,621.56c-19.701,49.894 21.467,103.662 57.54,114.86c-17.067,-24.339 -29.213,-47.248 -28.284,-63.82c6.54,28.077 19.94,57.826 49.011,58.513l-22.174,-51.06c6.588,19.678 15.12,38.121 45.06,42.971l-12.609,-23.871l-15.804,-23.751c1.787,-18.694 11.116,-24.376 24.505,-9.818l12.177,29.634l4.491,-31.343c-1.92,-26.231 -13.1,-49.604 -44.153,-66.841c-23.513,22.436 -42.095,29.557 -69.76,24.526Z"/></clipPath><g clip-path="url(#_clip2)"><path id="uña11" serif:id="uña1" d="M356.132,715.659c3.406,0.332 9.692,1.791 14.997,-2.448l10.524,19.859l-25.521,-17.411Z" style="fill:#f7ded4;stroke:#000;stroke-width:1px;"/><path id="uña21" serif:id="uña2" d="M377.498,712.793c7.385,0.017 14.355,-0.849 18.959,-6.746l12.222,25.46c-15.606,-3.94 -27.397,-9.563 -31.181,-18.714Z" style="fill:#f5ddd3;stroke:#000;stroke-width:1px;"/><path id="uña31" serif:id="uña3" d="M399.572,704.587c7.985,0.49 13.816,-2.562 18.958,-6.746l12.222,25.46c-15.606,-3.941 -27.396,-9.563 -31.18,-18.714Z" style="fill:#f3e0d6;stroke:#000;stroke-width:1px;"/><path id="uña41" serif:id="uña4" d="M429.065,668.482c7.985,0.49 9.394,0.694 14.537,-3.49l-3.696,26.274c-8.546,-13.951 -8.84,-20.765 -10.841,-22.784Z" style="fill:#f3e0d6;stroke:#000;stroke-width:1px;"/></g><path d="M329.455,621.56c-19.701,49.894 21.467,103.662 57.54,114.86c-17.067,-24.339 -29.213,-47.248 -28.284,-63.82c6.54,28.077 19.94,57.826 49.011,58.513l-22.174,-51.06c6.588,19.678 15.12,38.121 45.06,42.971l-12.609,-23.871l-15.804,-23.751c1.787,-18.694 11.116,-24.376 24.505,-9.818l12.177,29.634l4.491,-31.343c-1.92,-26.231 -13.1,-49.604 -44.153,-66.841c-23.513,22.436 -42.095,29.557 -69.76,24.526Z" style="fill:none;stroke:#000;stroke-width:5px;"/><path id="brazo2" d="M635.626,435.814c-23.222,46.649 -23.094,95.235 -11.411,144.78c1.633,6.852 5.267,13.064 10.441,17.845c18.485,17.33 33.301,28.868 58.996,22.464c36.303,-19.634 55.947,-67.954 53.302,-154.655" style="fill:none;stroke:#000;stroke-width:5px;"/><path id="brazo1" d="M332.777,337.541c-77.495,72.256 -57.7,193.563 -22.142,267.546c4.309,8.939 13.041,14.916 22.932,15.699c33.31,2.511 67.601,-13.145 64.624,-29.337c10.157,-49.398 19.447,-98.863 -7.49,-151.115" style="fill:none;stroke:#000;stroke-width:5px;"/><path id="hocico" d="M397.766,247.627c-32.769,-32.763 -42.124,-65.546 7.017,-98.383c24.546,-6.743 52.797,-0.951 77.188,10.434l66.931,-1.49c27.601,-7.496 50.814,-16.34 71.25,-7.454c35.573,18.453 44.757,43.096 23.21,76.024c-21.929,31.218 -48.501,41.024 -83.125,40.248c-34.454,25.056 -64.887,26.43 -90.681,0.496l-71.79,-19.875" style="fill:#efa88d;"/><clipPath id="_clip3"><path d="M397.766,247.627c-32.769,-32.763 -42.124,-65.546 7.017,-98.383c24.546,-6.743 52.797,-0.951 77.188,10.434l66.931,-1.49c27.601,-7.496 50.814,-16.34 71.25,-7.454c35.573,18.453 44.757,43.096 23.21,76.024c-21.929,31.218 -48.501,41.024 -83.125,40.248c-34.454,25.056 -64.887,26.43 -90.681,0.496l-71.79,-19.875"/></clipPath><g clip-path="url(#_clip3)"><path id="labios" d="M572.112,227.255c-34.674,39.288 -75.221,35.712 -119.829,2.484c25.995,-5.394 47.008,-14.699 63.153,-27.825c12.645,14.188 32.336,21.9 56.676,25.341" style="fill:#1e040d;"/><clipPath id="_clip4"><path id="labios1" serif:id="labios" d="M572.112,227.255c-34.674,39.288 -75.221,35.712 -119.829,2.484c25.995,-5.394 47.008,-14.699 63.153,-27.825c12.645,14.188 32.336,21.9 56.676,25.341"/></clipPath><g clip-path="url(#_clip4)"><path id="lengua" d="M466.261,238.492c16.889,-2.521 36.698,-6.68 53.155,-6.727c11.77,-0.033 29.821,1.497 41.301,3.13c7.171,15.446 -66.608,39.29 -94.456,3.597Z" style="fill:#ff9cb3;stroke:#000;stroke-width:2px;"/></g><path id="labios2" serif:id="labios" d="M572.112,227.255c-34.674,39.288 -75.221,35.712 -119.829,2.484c25.995,-5.394 47.008,-14.699 63.153,-27.825c12.645,14.188 32.336,21.9 56.676,25.341" style="fill:none;stroke:#000;stroke-width:2px;"/><path id="vigotes" d="M443.769,180.656c-5.356,-0.495 -10.278,0.347 -14.455,2.127c-19.736,8.413 -22.852,37.774 23.307,46.017c23.52,-4.51 44.679,-13.409 63.477,-26.697c26.43,22.393 46.83,24.08 73.548,23.437c30.709,-20.365 23.876,-41.25 -6.875,-46.381c-8.972,-9.895 -17.736,-17.319 -32.68,-20.511l-58.468,0.827c-21.992,-2.477 -38.135,4.281 -47.854,21.181Z" style="fill:#ecaa8c;stroke:#000;stroke-width:2px;"/></g><path d="M397.766,247.627c-32.769,-32.763 -42.124,-65.546 7.017,-98.383c24.546,-6.743 52.797,-0.951 77.188,10.434l66.931,-1.49c27.601,-7.496 50.814,-16.34 71.25,-7.454c35.573,18.453 44.757,43.096 23.21,76.024c-21.929,31.218 -48.501,41.024 -83.125,40.248c-34.454,25.056 -64.887,26.43 -90.681,0.496l-71.79,-19.875" style="fill:none;stroke:#000;stroke-width:2px;"/><path id="nariz" d="M494.673,149.961c0.3,12.209 1.459,21.81 10.718,28.351c7.525,3.408 15.021,3.467 22.492,0.532c8.133,-7.109 13.193,-16.197 12.495,-28.992c-14.501,-6.881 -45.616,-1.79 -45.705,0.109Z" style="fill:#474749;stroke:#000;stroke-width:2px;"/><path id="hojo1" d="M407.497,148.651c17.119,-4.388 40.364,-3.078 60.563,3.762c0.782,-16.465 1.01,-32.919 -3.921,-49.269c-1.824,-6.032 -6.899,-10.517 -13.11,-11.585c-7.388,-1.358 -14.143,-1.369 -22.305,0.053c-4.2,0.711 -7.832,3.332 -9.829,7.095c-7.742,14.954 -10.199,33.335 -11.398,49.944Z" style="fill:#c5c3c4;"/><clipPath id="_clip5"><path d="M407.497,148.651c17.119,-4.388 40.364,-3.078 60.563,3.762c0.782,-16.465 1.01,-32.919 -3.921,-49.269c-1.824,-6.032 -6.899,-10.517 -13.11,-11.585c-7.388,-1.358 -14.143,-1.369 -22.305,0.053c-4.2,0.711 -7.832,3.332 -9.829,7.095c-7.742,14.954 -10.199,33.335 -11.398,49.944Z"/></clipPath><g clip-path="url(#_clip5)"><path d="M418.646,146.383c7.343,-0.652 23.958,-0.538 41.458,3.32c-0.736,-14.355 -1.621,-33.278 -8.065,-40.187c-6.592,-4.751 -12.491,-2.974 -18.211,-0.406c-11.398,7.439 -15.658,25.279 -15.182,37.273Z" style="fill:#0c0cf5;"/><clipPath id="_clip6"><path d="M418.646,146.383c7.343,-0.652 23.958,-0.538 41.458,3.32c-0.736,-14.355 -1.621,-33.278 -8.065,-40.187c-6.592,-4.751 -12.491,-2.974 -18.211,-0.406c-11.398,7.439 -15.658,25.279 -15.182,37.273Z"/></clipPath><g clip-path="url(#_clip6)"><path d="M436.699,142.236l13.216,0.972c1.1,-9.319 1.25,-18.274 -1.227,-26.225c-3.46,-1.792 -7.607,-1.796 -12.255,-0.493c-2.198,7.814 -1.68,16.54 0.266,25.746Z" style="fill:#030200;"/></g></g><path d="M407.497,148.651c17.119,-4.388 40.364,-3.078 60.563,3.762c0.782,-16.465 1.01,-32.919 -3.921,-49.269c-1.824,-6.032 -6.899,-10.517 -13.11,-11.585c-7.388,-1.358 -14.143,-1.369 -22.305,0.053c-4.2,0.711 -7.832,3.332 -9.829,7.095c-7.742,14.954 -10.199,33.335 -11.398,49.944Z" style="fill:none;stroke:#000;stroke-width:2px;"/><path id="hojo2" d="M557.701,155.259c20.674,-1.805 37.184,-13.741 56.367,-7.639c0.745,-15.688 -0.488,-28.128 -5.319,-42.426c-2.624,-7.91 -9.963,-13.295 -18.295,-13.424c-4.495,-0.031 -8.803,0.693 -14.176,1.892c-5.126,1.107 -9.59,4.232 -12.384,8.67c-11.235,17.904 -6.94,37.355 -6.193,52.927Z" style="fill:#c1c2bf;"/><clipPath id="_clip7"><path d="M557.701,155.259c20.674,-1.805 37.184,-13.741 56.367,-7.639c0.745,-15.688 -0.488,-28.128 -5.319,-42.426c-2.624,-7.91 -9.963,-13.295 -18.295,-13.424c-4.495,-0.031 -8.803,0.693 -14.176,1.892c-5.126,1.107 -9.59,4.232 -12.384,8.67c-11.235,17.904 -6.94,37.355 -6.193,52.927Z"/></clipPath><g clip-path="url(#_clip7)"><path d="M565.059,153.174c-4.452,4.05 18.975,-5.679 39.211,-7.391c-0.736,-14.355 -2.078,-29.104 -8.522,-36.013c-6.592,-4.751 -12.492,-2.974 -18.212,-0.406c-11.397,7.439 -12.954,31.815 -12.477,43.81Z" style="fill:#0d0dff;"/><clipPath id="_clip8"><path d="M565.059,153.174c-4.452,4.05 18.975,-5.679 39.211,-7.391c-0.736,-14.355 -2.078,-29.104 -8.522,-36.013c-6.592,-4.751 -12.492,-2.974 -18.212,-0.406c-11.397,7.439 -12.954,31.815 -12.477,43.81Z"/></clipPath><g clip-path="url(#_clip8)"><path d="M579.181,143.575l10.805,-0.142c1.1,-9.319 2.057,-17.919 -0.419,-25.87c-3.461,-1.792 -4.777,-2.121 -9.425,-0.818c-2.198,7.813 -2.907,17.625 -0.961,26.83Z" style="fill:#040200;"/></g></g><path d="M557.701,155.259c20.674,-1.805 37.184,-13.741 56.367,-7.639c0.745,-15.688 -0.488,-28.128 -5.319,-42.426c-2.624,-7.91 -9.963,-13.295 -18.295,-13.424c-4.495,-0.031 -8.803,0.693 -14.176,1.892c-5.126,1.107 -9.59,4.232 -12.384,8.67c-11.235,17.904 -6.94,37.355 -6.193,52.927Z" style="fill:none;stroke:#000;stroke-width:2px;"/><path id="ceja2" d="M398.612,87.024c32.564,-36.008 59.27,-32.928 76.918,-7.453c-27.708,-5.797 -52.91,-1.562 -76.918,7.453Z"/><path id="ceja1" d="M549.447,82.484c23.531,-35.396 57.851,-20.797 81.516,4.269c-27.499,-9.253 -57.266,-17.295 -81.516,-4.269Z"/><path id="vigote6" d="M467.313,192.271c-30.544,-2.246 -59.47,0.556 -86.796,8.347" style="fill:none;stroke:#000;stroke-width:5px;"/><path id="vigote5" d="M462.204,203.143c-34.605,-2.762 -54.374,12.629 -75.475,21.21" style="fill:none;stroke:#000;stroke-width:5px;"/><path id="vigote4" d="M462.048,213.526c-40.277,0.797 -45.117,24.879 -60.264,28.863" style="fill:none;stroke:#000;stroke-width:5px;"/><path id="vigote3" d="M647.231,201.665c-30.543,-2.246 -59.752,-15.596 -87.078,-7.804" style="fill:none;stroke:#000;stroke-width:5px;"/><path id="vigote2" d="M638.859,223.33c-18.504,-0.869 -20.511,-20.969 -75.334,-21.481" style="fill:none;stroke:#000;stroke-width:5px;"/><path id="vigote1" d="M622.594,239.019c-17.65,0.096 -11.643,-19.771 -58.071,-25.779" style="fill:none;stroke:#000;stroke-width:5px;"/></svg>