<?xml version="1.0" encoding="UTF-8" standalone="no"?><!DOCTYPE svg PUBLIC "-//W3C//DTD SVG 1.1//EN" "http://www.w3.org/Graphics/SVG/1.1/DTD/svg11.dtd"><svg width="100%" height="100%" viewBox="0 0 1024 1024" version="1.1" xmlns="http://www.w3.org/2000/svg" xmlns:xlink="http://www.w3.org/1999/xlink" xml:space="preserve" xmlns:serif="http://www.serif.com/" style="fill-rule:evenodd;clip-rule:evenodd;stroke-linecap:round;stroke-linejoin:round;stroke-miterlimit:1.5;"><path d="M116.27,912.067c-82.292,131.151 184.49,34.902 225.431,46.275c11.492,3.192 61.321,-4.117 26.938,30.497c-31.341,31.552 151.808,33.436 275.044,-10.4c13.463,3.41 32.753,-2.517 45.169,0.038c13.518,2.781 -25.934,27.762 -13.608,28.808c144.637,12.276 254.946,-30.068 289.78,-105.035c7.85,-16.893 -84.579,-35.8 -63.439,-37.61c59.729,-5.115 189.253,-31.48 43.972,-74.248c-3.094,-0.911 2.861,-6.516 2.621,-8.572c-26.382,2.434 -19.168,-21.403 45.284,-53.926c14.711,-40.945 -145.859,-41.717 -104.701,-67.015c33.478,-20.578 63.122,-68.278 -12.835,-94.191c-91.659,-14.53 -100.814,-13.464 -156.485,-22.208c32.397,-36.289 -38.869,-93.391 -190.992,-83.193c-158.061,-16.797 -240.703,19.887 -223.823,54.328c-81.502,-5.876 -182.611,80.119 -157.506,98.725c41.738,58.606 51.722,24.496 65.881,50.545c-29.962,8.087 -29.889,31.042 -34.919,33.183c-243.087,103.481 -164.069,118.828 -105.423,112.272c21.997,-2.459 -59.979,63.622 12.296,48.503c-79.227,24.87 75.278,-16.841 31.315,53.224Z" style="fill:#a16526;stroke:#000;stroke-width:1px;"/><path d="M309.202,916.628c-115.558,-86.847 176.169,-12.208 328.175,4.497c47.302,-61.992 119.366,-102.39 214.342,-122.807c9.907,-17.025 21.041,-33.073 45.691,-38.359c-71.514,-9.882 -119.019,-32.147 -98.133,-89.686c-60.066,-28.764 -101.149,-23.103 -146.404,-13.218c-39.329,0.642 -68.519,-3.389 -99.649,-31.692c-62.084,-20.541 -124.296,-25.411 -160.918,4.876c-37.734,17.293 -76.42,33.575 -93.295,10.588c7.556,66.14 -54.783,88.608 -114.759,96.563c47.411,11.075 49.776,77.52 40.918,106.771l84.032,72.467Z" style="fill:#573217;stroke:#000;stroke-width:1px;"/><ellipse cx="194.642" cy="854.039" rx="44.515" ry="38.85" style="fill:#7c5840;"/><ellipse cx="166.025" cy="805.881" rx="27.91" ry="27.923" style="fill:#362617;"/><ellipse cx="316.882" cy="598.682" rx="38.863" ry="41.683" style="fill:#352518;"/><ellipse cx="756.383" cy="597.063" rx="29.677" ry="36.826" style="fill:#7b5940;"/><ellipse cx="814.677" cy="616.084" rx="36.39" ry="34.803" style="fill:#423427;"/><ellipse cx="715.754" cy="907.458" rx="36.39" ry="34.803" style="fill:#7b573f;"/><ellipse cx="843.294" cy="882.367" rx="24.731" ry="24.281" style="fill:#342518;"/><path d="M363.374,753.42c-47.204,13.888 -73.309,38.382 -69.09,57.469c9.535,-0.227 21.618,-7.794 35.739,-21.23c-19.371,15.88 -28.852,32.671 -24.313,38.15c11.096,0.863 26.697,-13.27 39.481,-28c-12.093,10.813 -17.843,20.214 -11.966,27.027c7.277,-2.025 14.414,-9.503 24.241,-24.855c-7.484,11.165 -12.812,21.518 -6.857,27.621c3.824,2.195 19.627,-14.1 34.752,-32.069c4.465,-2.554 12.063,-10.908 26.503,-15.338c7.53,-2.31 12.364,-6.042 14.454,-12.768l-62.944,-16.007Z" style="fill:#e99a77;stroke:#000;stroke-width:2px;"/><path d="M657.278,752.491c47.204,13.888 73.309,38.383 69.09,57.469c-9.535,-0.227 -21.618,-7.794 -35.739,-21.23c19.371,15.88 28.852,32.672 24.313,38.15c-11.096,0.864 -26.698,-13.27 -39.481,-28c12.093,10.813 17.843,20.214 11.966,27.027c-7.277,-2.025 -14.414,-9.502 -24.241,-24.854c7.484,11.164 12.812,21.517 6.857,27.621c-3.824,2.194 -19.627,-14.101 -34.752,-32.069c-4.465,-2.555 -12.064,-10.908 -26.503,-15.338c-7.53,-2.311 -12.364,-6.043 -14.454,-12.768l62.944,-16.008Z" style="fill:#e99a77;stroke:#000;stroke-width:2px;"/><path id="cuerpo" d="M358.7,738.096c5.988,25.619 24.348,39.585 66.227,31.399c30.277,-17.254 59.8,-33.879 72.544,-58.78c13.125,-5.049 21.718,-5.596 32.4,2.579c13.333,28.718 38.829,41.218 64.882,52.977c12.896,11.219 40.068,6.487 60.032,-3.671c11.255,-35.896 10.077,-70.061 2.242,-112.154c22.524,-80.662 26.793,-176.39 -2.772,-270.241c-1.454,-17.146 -2.116,-34.03 -6.663,-52.199c-3.479,-13.937 -9.689,-27.045 -18.271,-38.564c-16.225,-21.786 -21.197,-34.011 -17.777,-65.438c-2.536,-6.575 3.963,-52.112 -0.799,-113.288c-1.174,-14.696 -5.113,-29.038 -11.611,-42.272c-43.009,-87.715 -152.502,-68.008 -183.797,23.351c-7.015,20.385 -9.279,42.103 -6.622,63.497c5.859,47.253 0.329,118.164 -12.846,131.311c-17.114,18.712 -26.201,53.343 -32.075,94.347c-22.149,79.922 -27.238,166.182 1.834,265.131c-8.351,29.782 -8.552,49.791 -6.928,92.015Z" style="fill:#525461;stroke:#000;stroke-width:5px;"/><path id="lomo" d="M460.274,676.485c0.13,0.639 31.482,34.731 48.963,42.043c20.737,-3.578 40.72,-22.318 60.169,-51.801c17.51,-23.868 52.348,-86.886 17.194,-178.119c-10.363,-26.897 -12.786,-55.463 -9.119,-86.239c-10.598,-22.881 -53.739,-92.259 -69.736,-82.774c-42.079,24.95 -67.96,95.733 -61.384,83.872c-1.317,47.506 -4.697,80.603 -11.875,89.905c-46.134,59.777 -2.216,146.835 25.788,183.113Z" style="fill:#8f949e;stroke:#000;stroke-width:5px;"/><path id="mano2" d="M625.388,508.975c12.186,40.803 -13.278,84.775 -35.59,93.933c10.557,-19.904 18.069,-38.64 17.495,-52.192c-4.045,22.961 -12.334,47.29 -30.315,47.852l13.715,-41.757c-4.074,16.092 -9.352,31.175 -27.871,35.141l7.799,-19.521l9.776,-19.423c-1.105,-15.289 -6.876,-19.935 -15.158,-8.03l-7.532,24.235l-2.777,-25.633c1.188,-21.451 8.103,-40.566 27.31,-54.662c14.543,18.348 26.037,24.171 43.148,20.057Z" style="fill:#e99a77;"/><clipPath id="_clip1"><path d="M625.388,508.975c12.186,40.803 -13.278,84.775 -35.59,93.933c10.557,-19.904 18.069,-38.64 17.495,-52.192c-4.045,22.961 -12.334,47.29 -30.315,47.852l13.715,-41.757c-4.074,16.092 -9.352,31.175 -27.871,35.141l7.799,-19.521l9.776,-19.423c-1.105,-15.289 -6.876,-19.935 -15.158,-8.03l-7.532,24.235l-2.777,-25.633c1.188,-21.451 8.103,-40.566 27.31,-54.662c14.543,18.348 26.037,24.171 43.148,20.057Z"/></clipPath><g clip-path="url(#_clip1)"><path id="uña1" d="M608.888,585.929c-2.107,0.272 -5.995,1.465 -9.276,-2.001l-6.509,16.24l15.785,-14.239Z" style="fill:#f2dad1;stroke:#000;stroke-width:1px;"/><path id="uña2" d="M595.672,583.586c-4.568,0.013 -8.879,-0.694 -11.726,-5.517l-7.56,20.821c9.653,-3.223 16.946,-7.82 19.286,-15.304Z" style="fill:#f5e0d5;stroke:#000;stroke-width:1px;"/><path id="uña3" d="M582.019,576.875c-4.939,0.401 -8.545,-2.095 -11.726,-5.517l-7.56,20.821c9.653,-3.222 16.946,-7.82 19.286,-15.304Z" style="fill:#f0ded2;stroke:#000;stroke-width:1px;"/><path id="uña4" d="M563.777,547.348c-4.939,0.401 -5.811,0.568 -8.992,-2.854l2.287,21.487c5.285,-11.41 5.467,-16.982 6.705,-18.633Z" style="fill:#f1dbcb;stroke:#000;stroke-width:1px;"/></g><path d="M625.388,508.975c12.186,40.803 -13.278,84.775 -35.59,93.933c10.557,-19.904 18.069,-38.64 17.495,-52.192c-4.045,22.961 -12.334,47.29 -30.315,47.852l13.715,-41.757c-4.074,16.092 -9.352,31.175 -27.871,35.141l7.799,-19.521l9.776,-19.423c-1.105,-15.289 -6.876,-19.935 -15.158,-8.03l-7.532,24.235l-2.777,-25.633c1.188,-21.451 8.103,-40.566 27.31,-54.662c14.543,18.348 26.037,24.171 43.148,20.057Z" style="fill:none;stroke:#000;stroke-width:5px;"/><path id="mano1" d="M397.416,510.499c-12.185,40.803 13.279,84.775 35.59,93.933c-10.556,-19.904 -18.068,-38.64 -17.494,-52.192c4.045,22.961 12.334,47.29 30.315,47.852l-13.715,-41.757c4.074,16.092 9.352,31.175 27.871,35.141l-7.799,-19.521l-9.776,-19.424c1.105,-15.288 6.876,-19.934 15.158,-8.029l7.531,24.235l2.778,-25.633c-1.188,-21.452 -8.103,-40.566 -27.31,-54.662c-14.543,18.348 -26.037,24.171 -43.149,20.057Z" style="fill:#ea9b78;"/><clipPath id="_clip2"><path d="M397.416,510.499c-12.185,40.803 13.279,84.775 35.59,93.933c-10.556,-19.904 -18.068,-38.64 -17.494,-52.192c4.045,22.961 12.334,47.29 30.315,47.852l-13.715,-41.757c4.074,16.092 9.352,31.175 27.871,35.141l-7.799,-19.521l-9.776,-19.424c1.105,-15.288 6.876,-19.934 15.158,-8.029l7.531,24.235l2.778,-25.633c-1.188,-21.452 -8.103,-40.566 -27.31,-54.662c-14.543,18.348 -26.037,24.171 -43.149,20.057Z"/></clipPath><g clip-path="url(#_clip2)"><path id="uña11" serif:id="uña1" d="M413.917,587.453c2.107,0.272 5.995,1.465 9.276,-2.002l6.509,16.241l-15.785,-14.239Z" style="fill:#f7ded4;stroke:#000;stroke-width:1px;"/><path id="uña21" serif:id="uña2" d="M427.133,585.11c4.567,0.013 8.879,-0.694 11.726,-5.517l7.56,20.821c-9.653,-3.223 -16.946,-7.821 -19.286,-15.304Z" style="fill:#f5ddd3;stroke:#000;stroke-width:1px;"/><path id="uña31" serif:id="uña3" d="M440.786,578.399c4.939,0.401 8.545,-2.095 11.726,-5.517l7.56,20.821c-9.653,-3.223 -16.946,-7.821 -19.286,-15.304Z" style="fill:#f3e0d6;stroke:#000;stroke-width:1px;"/><path id="uña41" serif:id="uña4" d="M459.028,548.872c4.939,0.401 5.811,0.568 8.992,-2.854l-2.287,21.487c-5.285,-11.41 -5.467,-16.982 -6.705,-18.633Z" style="fill:#f3e0d6;stroke:#000;stroke-width:1px;"/></g><path d="M397.416,510.499c-12.185,40.803 13.279,84.775 35.59,93.933c-10.556,-19.904 -18.068,-38.64 -17.494,-52.192c4.045,22.961 12.334,47.29 30.315,47.852l-13.715,-41.757c4.074,16.092 9.352,31.175 27.871,35.141l-7.799,-19.521l-9.776,-19.424c1.105,-15.288 6.876,-19.934 15.158,-8.029l7.531,24.235l2.778,-25.633c-1.188,-21.452 -8.103,-40.566 -27.31,-54.662c-14.543,18.348 -26.037,24.171 -43.149,20.057Z" style="fill:none;stroke:#000;stroke-width:5px;"/><path id="brazo2" d="M586.793,358.596c-14.308,38.001 -14.285,77.574 -7.143,117.928c1.083,6.051 3.718,11.717 7.647,16.445c10.933,13.394 20.011,22.059 35.386,16.993c22.455,-16.057 34.605,-55.573 32.969,-126.477" style="fill:none;stroke:#000;stroke-width:5px;"/><path id="brazo1" d="M399.471,278.228c-46.285,57.059 -36.46,151.52 -15.928,212.423c4.86,13.875 19.665,21.585 33.82,17.612c13.516,-3.764 23.879,-12.965 22.568,-22.389c6.283,-40.398 12.029,-80.85 -4.632,-123.582" style="fill:none;stroke:#000;stroke-width:5px;"/><path id="hocico" d="M439.669,204.696c-20.269,-26.793 -26.055,-53.604 4.34,-80.458c15.182,-5.514 32.656,-0.777 47.743,8.534l41.399,-1.219c17.072,-6.131 31.43,-13.363 44.07,-6.096c22.003,15.09 27.684,35.244 14.356,62.172c-13.564,25.531 -29.999,33.55 -51.415,32.915c-21.311,20.491 -40.134,21.614 -56.089,0.406l-44.404,-16.254" style="fill:#efa88d;"/><clipPath id="_clip3"><path d="M439.669,204.696c-20.269,-26.793 -26.055,-53.604 4.34,-80.458c15.182,-5.514 32.656,-0.777 47.743,8.534l41.399,-1.219c17.072,-6.131 31.43,-13.363 44.07,-6.096c22.003,15.09 27.684,35.244 14.356,62.172c-13.564,25.531 -29.999,33.55 -51.415,32.915c-21.311,20.491 -40.134,21.614 -56.089,0.406l-44.404,-16.254"/></clipPath><g clip-path="url(#_clip3)"><path id="labios" d="M547.507,188.036c-21.447,32.13 -46.526,29.205 -74.118,2.031c16.079,-4.411 29.076,-12.021 39.062,-22.755c7.821,11.603 20.001,17.91 35.056,20.724" style="fill:#1e040d;"/><clipPath id="_clip4"><path id="labios1" serif:id="labios" d="M547.507,188.036c-21.447,32.13 -46.526,29.205 -74.118,2.031c16.079,-4.411 29.076,-12.021 39.062,-22.755c7.821,11.603 20.001,17.91 35.056,20.724"/></clipPath><g clip-path="url(#_clip4)"><path id="lengua" d="M482.035,197.226c10.447,-2.062 22.699,-5.463 32.878,-5.502c7.28,-0.027 18.445,1.224 25.546,2.56c4.435,12.632 -41.199,32.131 -58.424,2.942Z" style="fill:#ff9cb3;stroke:#000;stroke-width:2px;"/></g><path id="labios2" serif:id="labios" d="M547.507,188.036c-21.447,32.13 -46.526,29.205 -74.118,2.031c16.079,-4.411 29.076,-12.021 39.062,-22.755c7.821,11.603 20.001,17.91 35.056,20.724" style="fill:none;stroke:#000;stroke-width:2px;"/><path id="vigotes" d="M468.123,149.927c-3.313,-0.405 -6.357,0.284 -8.941,1.74c-12.207,6.88 -14.135,30.891 14.416,37.632c14.548,-3.688 27.636,-10.966 39.263,-21.832c16.348,18.312 28.966,19.692 45.491,19.167c18.995,-16.655 14.769,-33.735 -4.252,-37.931c-5.55,-8.092 -10.971,-14.163 -20.214,-16.774l-36.164,0.676c-13.603,-2.025 -23.588,3.501 -29.599,17.322Z" style="fill:#ecaa8c;stroke:#000;stroke-width:2px;"/></g><path d="M439.669,204.696c-20.269,-26.793 -26.055,-53.604 4.34,-80.458c15.182,-5.514 32.656,-0.777 47.743,8.534l41.399,-1.219c17.072,-6.131 31.43,-13.363 44.07,-6.096c22.003,15.09 27.684,35.244 14.356,62.172c-13.564,25.531 -29.999,33.55 -51.415,32.915c-21.311,20.491 -40.134,21.614 -56.089,0.406l-44.404,-16.254" style="fill:none;stroke:#000;stroke-width:2px;"/><path id="nariz" d="M499.608,124.825c0.186,9.984 0.903,17.836 6.63,23.186c4.654,2.786 9.291,2.835 13.912,0.435c5.031,-5.814 8.16,-13.247 7.729,-23.711c-8.97,-5.627 -28.215,-1.464 -28.271,0.09Z" style="fill:#474749;stroke:#000;stroke-width:2px;"/><path id="hojo1" d="M445.688,123.753c10.588,-3.588 24.966,-2.517 37.46,3.077c0.443,-12.338 0.598,-24.668 -1.725,-36.931c-1.576,-8.447 -9.315,-14.312 -17.874,-13.546c-0.02,-0.014 -0.038,-0.012 -0.057,-0.01c-5.353,0.487 -9.929,4.052 -11.713,9.123c-4.035,11.731 -5.4,25.637 -6.091,38.287Z" style="fill:#c5c3c4;"/><clipPath id="_clip5"><path d="M445.688,123.753c10.588,-3.588 24.966,-2.517 37.46,3.077c0.443,-12.338 0.598,-24.668 -1.725,-36.931c-1.576,-8.447 -9.315,-14.312 -17.874,-13.546c-0.02,-0.014 -0.038,-0.012 -0.057,-0.01c-5.353,0.487 -9.929,4.052 -11.713,9.123c-4.035,11.731 -5.4,25.637 -6.091,38.287Z"/></clipPath><g clip-path="url(#_clip5)"><path d="M452.584,121.899c4.542,-0.534 14.818,-0.441 25.643,2.715c-0.455,-11.74 -1.003,-27.215 -4.988,-32.865c-4.078,-3.886 -7.727,-2.433 -11.265,-0.333c-7.05,6.084 -9.685,20.674 -9.39,30.483Z" style="fill:#0c0cf5;"/><clipPath id="_clip6"><path d="M452.584,121.899c4.542,-0.534 14.818,-0.441 25.643,2.715c-0.455,-11.74 -1.003,-27.215 -4.988,-32.865c-4.078,-3.886 -7.727,-2.433 -11.265,-0.333c-7.05,6.084 -9.685,20.674 -9.39,30.483Z"/></clipPath><g clip-path="url(#_clip6)"><path d="M463.75,118.507l8.174,0.795c0.681,-7.621 0.773,-14.945 -0.758,-21.446c-2.141,-1.466 -4.705,-1.469 -7.581,-0.404c-1.359,6.39 -1.039,13.526 0.165,21.055Z" style="fill:#030200;"/></g></g><path d="M445.688,123.753c10.588,-3.588 24.966,-2.517 37.46,3.077c0.443,-12.338 0.598,-24.668 -1.725,-36.931c-1.576,-8.447 -9.315,-14.312 -17.874,-13.546c-0.02,-0.014 -0.038,-0.012 -0.057,-0.01c-5.353,0.487 -9.929,4.052 -11.713,9.123c-4.035,11.731 -5.4,25.637 -6.091,38.287Z" style="fill:none;stroke:#000;stroke-width:2px;"/><path id="hojo2" d="M538.593,129.157c12.788,-1.476 23,-11.237 34.865,-6.247c0.476,-13.249 -0.353,-23.665 -3.59,-35.848c-1.712,-6.5 -8.099,-10.621 -14.727,-9.501c-0.002,-0.01 -0.002,-0.01 -0.002,-0.01c-6.439,1.096 -11.809,5.536 -14.095,11.655c-5.182,13.683 -2.878,28.174 -2.451,39.951Z" style="fill:#c1c2bf;"/><clipPath id="_clip7"><path d="M538.593,129.157c12.788,-1.476 23,-11.237 34.865,-6.247c0.476,-13.249 -0.353,-23.665 -3.59,-35.848c-1.712,-6.5 -8.099,-10.621 -14.727,-9.501c-0.002,-0.01 -0.002,-0.01 -0.002,-0.01c-6.439,1.096 -11.809,5.536 -14.095,11.655c-5.182,13.683 -2.878,28.174 -2.451,39.951Z"/></clipPath><g clip-path="url(#_clip7)"><path d="M543.145,127.453c-2.754,3.312 11.736,-4.645 24.253,-6.045c-0.456,-11.739 -1.286,-23.801 -5.271,-29.451c-4.078,-3.886 -7.727,-2.433 -11.265,-0.333c-7.049,6.084 -8.012,26.019 -7.717,35.829Z" style="fill:#0d0dff;"/><clipPath id="_clip8"><path d="M543.145,127.453c-2.754,3.312 11.736,-4.645 24.253,-6.045c-0.456,-11.739 -1.286,-23.801 -5.271,-29.451c-4.078,-3.886 -7.727,-2.433 -11.265,-0.333c-7.049,6.084 -8.012,26.019 -7.717,35.829Z"/></clipPath><g clip-path="url(#_clip8)"><path d="M551.88,119.603l6.683,-0.117c0.68,-7.621 1.272,-14.654 -0.26,-21.156c-2.14,-1.466 -2.954,-1.735 -5.829,-0.67c-1.36,6.39 -1.798,14.414 -0.594,21.943Z" style="fill:#040200;"/></g></g><path d="M538.593,129.157c12.788,-1.476 23,-11.237 34.865,-6.247c0.476,-13.249 -0.353,-23.665 -3.59,-35.848c-1.712,-6.5 -8.099,-10.621 -14.727,-9.501c-0.002,-0.01 -0.002,-0.01 -0.002,-0.01c-6.439,1.096 -11.809,5.536 -14.095,11.655c-5.182,13.683 -2.878,28.174 -2.451,39.951Z" style="fill:none;stroke:#000;stroke-width:2px;"/><path id="ceja2" d="M440.192,73.355c20.142,-29.448 36.661,-26.929 47.576,-6.095c-17.138,-4.741 -32.726,-1.278 -47.576,6.095Z"/><path id="ceja1" d="M533.488,69.642c14.555,-28.947 35.783,-17.008 50.42,3.491c-17.009,-7.567 -35.421,-14.144 -50.42,-3.491Z"/><path id="vigote6" d="M482.685,159.426c-18.892,-1.837 -36.783,0.454 -53.685,6.826" style="fill:none;stroke:#000;stroke-width:5px;"/><path id="vigote5" d="M479.526,168.317c-21.405,-2.258 -33.633,10.328 -46.684,17.346" style="fill:none;stroke:#000;stroke-width:5px;"/><path id="vigote4" d="M479.429,176.808c-24.913,0.652 -27.906,20.346 -37.275,23.604" style="fill:none;stroke:#000;stroke-width:5px;"/><path id="vigote3" d="M593.971,167.108c-18.893,-1.837 -36.959,-12.754 -53.861,-6.382" style="fill:none;stroke:#000;stroke-width:5px;"/><path id="vigote2" d="M588.792,184.826c-11.445,-0.711 -12.686,-17.149 -46.596,-17.567" style="fill:none;stroke:#000;stroke-width:5px;"/><path id="vigote1" d="M578.732,197.656c-10.918,0.079 -7.202,-16.168 -35.919,-21.082" style="fill:none;stroke:#000;stroke-width:5px;"/></svg>